<?xml version="1.0" encoding="UTF-8"?>
<svg version="1.1" xmlns="http://www.w3.org/2000/svg" width="128" height="128">
<path d="M0 0 C1.32 0 2.64 0 4 0 C4 20.79 4 41.58 4 63 C5.32 63.33 6.64 63.66 8 64 C8.28875 65.155 8.5775 66.31 8.875 67.5 C10.38186524 72.17044972 13.53451931 74.0192309 17.5625 76.4375 C31.05887285 84.5902195 42.97156923 96.17402198 47 112 C46.5546875 114.71484375 46.5546875 114.71484375 46 117 C42.37566012 117.34077314 38.75044609 117.6712218 35.125 118 C34.11179687 118.09539062 33.09859375 118.19078125 32.0546875 118.2890625 C25.68212887 118.86095879 19.39749765 119.12770164 13 119 C12.71382812 119.62390625 12.42765625 120.2478125 12.1328125 120.890625 C10.54432715 123.84849428 9.07368879 124.66361357 6 126 C1.00800929 126.55466563 -1.00463544 126.54292612 -5.4375 124.125 C-8 122 -8 122 -9 120 C-11.5054357 119.54540263 -11.5054357 119.54540263 -14.5390625 119.40234375 C-15.67730469 119.32306641 -16.81554687 119.24378906 -17.98828125 119.16210938 C-19.18839844 119.08798828 -20.38851562 119.01386719 -21.625 118.9375 C-23.97149169 118.78200959 -26.31785144 118.62451278 -28.6640625 118.46484375 C-29.76524414 118.38991699 -30.86642578 118.31499023 -32.00097656 118.23779297 C-35.37089412 117.97059176 -38.66636814 117.55234663 -42 117 C-43.85929351 110.51600809 -41.00669035 105.73193251 -38 100 C-31.88187508 90.42123685 -24.84457988 82.69203549 -14.93725586 77.05761719 C-9.01515432 73.68961302 -5.60404775 71.25683385 -3.41796875 64.6875 C-3.28003906 64.130625 -3.14210937 63.57375 -3 63 C-2.01 63 -1.02 63 0 63 C0 42.21 0 21.42 0 0 Z " fill="#49A842" transform="translate(62,0)"/>
<path d="M0 0 C7.26 0 14.52 0 22 0 C21 4 21 4 18.4375 6.25 C14.35261554 8.32957754 11.48879157 8.89240389 7 8 C3.5625 6.25 3.5625 6.25 1 4 C0.67 2.68 0.34 1.36 0 0 Z " fill="#F2F8F1" transform="translate(53,118)"/>
</svg>
